<mxfile host="www.draw.io" modified="2019-11-20T03:23:42.425Z" agent="Mozilla/5.0 (Windows NT 10.0; Win64; x64) AppleWebKit/537.36 (KHTML, like Gecko) Chrome/78.0.3904.108 Safari/537.36" etag="KPqXVDLpZoFSgodllfVS" version="12.2.7" type="github" pages="6">
  <diagram id="DmCk6K7zAT6Mv0i_aZjd" name="openshift layer">
    <mxGraphModel dx="1422" dy="772" grid="1" gridSize="10" guides="1" tooltips="1" connect="1" arrows="1" fold="1" page="1" pageScale="1" pageWidth="850" pageHeight="1100" math="0" shadow="0">
      <root>
        <mxCell id="0"/>
        <mxCell id="1" parent="0"/>
        <mxCell id="k-898758SpjsV-qfSCww-3" value="" style="edgeStyle=orthogonalEdgeStyle;rounded=0;orthogonalLoop=1;jettySize=auto;html=1;" parent="1" source="k-898758SpjsV-qfSCww-1" target="k-898758SpjsV-qfSCww-2" edge="1">
          <mxGeometry relative="1" as="geometry"/>
        </mxCell>
        <mxCell id="k-898758SpjsV-qfSCww-1" value="docker" style="rounded=0;whiteSpace=wrap;html=1;" parent="1" vertex="1">
          <mxGeometry x="180" y="70" width="120" height="60" as="geometry"/>
        </mxCell>
        <mxCell id="k-898758SpjsV-qfSCww-7" value="" style="edgeStyle=orthogonalEdgeStyle;rounded=0;orthogonalLoop=1;jettySize=auto;html=1;" parent="1" source="k-898758SpjsV-qfSCww-2" target="k-898758SpjsV-qfSCww-6" edge="1">
          <mxGeometry relative="1" as="geometry"/>
        </mxCell>
        <mxCell id="k-898758SpjsV-qfSCww-2" value="kubernetes" style="rounded=0;whiteSpace=wrap;html=1;" parent="1" vertex="1">
          <mxGeometry x="280" y="190" width="120" height="60" as="geometry"/>
        </mxCell>
        <mxCell id="k-898758SpjsV-qfSCww-9" value="" style="edgeStyle=orthogonalEdgeStyle;rounded=0;orthogonalLoop=1;jettySize=auto;html=1;" parent="1" source="k-898758SpjsV-qfSCww-6" target="k-898758SpjsV-qfSCww-8" edge="1">
          <mxGeometry relative="1" as="geometry"/>
        </mxCell>
        <mxCell id="k-898758SpjsV-qfSCww-11" value="" style="edgeStyle=orthogonalEdgeStyle;rounded=0;orthogonalLoop=1;jettySize=auto;html=1;" parent="1" source="k-898758SpjsV-qfSCww-6" target="k-898758SpjsV-qfSCww-10" edge="1">
          <mxGeometry relative="1" as="geometry">
            <Array as="points">
              <mxPoint x="340" y="420"/>
              <mxPoint x="470" y="420"/>
            </Array>
          </mxGeometry>
        </mxCell>
        <mxCell id="k-898758SpjsV-qfSCww-6" value="openshift origin" style="rounded=0;whiteSpace=wrap;html=1;" parent="1" vertex="1">
          <mxGeometry x="279" y="330" width="120" height="60" as="geometry"/>
        </mxCell>
        <mxCell id="k-898758SpjsV-qfSCww-10" value="&lt;strike&gt;opeshift enterprise (ose).&lt;br&gt;Renamed to&lt;/strike&gt; openshift container platform (ocp) (private cloud)" style="rounded=0;whiteSpace=wrap;html=1;" parent="1" vertex="1">
          <mxGeometry x="410" y="460" width="190" height="90" as="geometry"/>
        </mxCell>
        <mxCell id="k-898758SpjsV-qfSCww-8" value="openshift online (public cloud)" style="rounded=0;whiteSpace=wrap;html=1;" parent="1" vertex="1">
          <mxGeometry x="170" y="450" width="120" height="60" as="geometry"/>
        </mxCell>
        <mxCell id="k-898758SpjsV-qfSCww-5" style="edgeStyle=orthogonalEdgeStyle;rounded=0;orthogonalLoop=1;jettySize=auto;html=1;exitX=0.5;exitY=1;exitDx=0;exitDy=0;" parent="1" source="k-898758SpjsV-qfSCww-4" target="k-898758SpjsV-qfSCww-2" edge="1">
          <mxGeometry relative="1" as="geometry">
            <Array as="points">
              <mxPoint x="470" y="160"/>
              <mxPoint x="340" y="160"/>
            </Array>
          </mxGeometry>
        </mxCell>
        <mxCell id="k-898758SpjsV-qfSCww-4" value="etcd (DB for config)" style="rounded=0;whiteSpace=wrap;html=1;" parent="1" vertex="1">
          <mxGeometry x="410" y="70" width="120" height="60" as="geometry"/>
        </mxCell>
        <mxCell id="C-b5r_RTObEv_faqzN-r-1" value="Openshift layer" style="text;html=1;strokeColor=none;fillColor=none;align=center;verticalAlign=middle;whiteSpace=wrap;rounded=0;fontStyle=1" parent="1" vertex="1">
          <mxGeometry x="250" y="30" width="210" height="20" as="geometry"/>
        </mxCell>
      </root>
    </mxGraphModel>
  </diagram>
  <diagram id="_yUaKzbTHmTVK-g0t_TE" name="cluster">
    <mxGraphModel dx="1422" dy="772" grid="1" gridSize="10" guides="1" tooltips="1" connect="1" arrows="1" fold="1" page="1" pageScale="1" pageWidth="850" pageHeight="1100" math="0" shadow="0">
      <root>
        <mxCell id="zsDxUeStvSoqi_JoBOiv-0"/>
        <mxCell id="zsDxUeStvSoqi_JoBOiv-1" parent="zsDxUeStvSoqi_JoBOiv-0"/>
        <mxCell id="MsBXwD07OSuD3CHzRGqF-2" value="" style="edgeStyle=orthogonalEdgeStyle;rounded=0;orthogonalLoop=1;jettySize=auto;html=1;" parent="zsDxUeStvSoqi_JoBOiv-1" source="MsBXwD07OSuD3CHzRGqF-0" target="MsBXwD07OSuD3CHzRGqF-1" edge="1">
          <mxGeometry relative="1" as="geometry"/>
        </mxCell>
        <mxCell id="MsBXwD07OSuD3CHzRGqF-4" value="" style="edgeStyle=orthogonalEdgeStyle;rounded=0;orthogonalLoop=1;jettySize=auto;html=1;" parent="zsDxUeStvSoqi_JoBOiv-1" source="MsBXwD07OSuD3CHzRGqF-0" target="MsBXwD07OSuD3CHzRGqF-3" edge="1">
          <mxGeometry relative="1" as="geometry"/>
        </mxCell>
        <mxCell id="op9Pu3PvogD6s1Ek-j2D-3" style="edgeStyle=none;rounded=0;orthogonalLoop=1;jettySize=auto;html=1;entryX=0.5;entryY=0;entryDx=0;entryDy=0;strokeColor=#000000;exitX=0.5;exitY=1;exitDx=0;exitDy=0;" parent="zsDxUeStvSoqi_JoBOiv-1" source="MsBXwD07OSuD3CHzRGqF-0" target="op9Pu3PvogD6s1Ek-j2D-0" edge="1">
          <mxGeometry relative="1" as="geometry">
            <Array as="points">
              <mxPoint x="260" y="340"/>
              <mxPoint x="400" y="340"/>
              <mxPoint x="530" y="360"/>
            </Array>
          </mxGeometry>
        </mxCell>
        <mxCell id="MsBXwD07OSuD3CHzRGqF-0" value="Manager (CoreOS)" style="rounded=0;whiteSpace=wrap;html=1;" parent="zsDxUeStvSoqi_JoBOiv-1" vertex="1">
          <mxGeometry x="200" y="250" width="120" height="60" as="geometry"/>
        </mxCell>
        <mxCell id="MsBXwD07OSuD3CHzRGqF-3" value="CoreOS&lt;br&gt;(Node)" style="rounded=0;whiteSpace=wrap;html=1;" parent="zsDxUeStvSoqi_JoBOiv-1" vertex="1">
          <mxGeometry x="305" y="380" width="120" height="60" as="geometry"/>
        </mxCell>
        <mxCell id="MsBXwD07OSuD3CHzRGqF-1" value="CoreOS&lt;br&gt;(Node)" style="rounded=0;whiteSpace=wrap;html=1;" parent="zsDxUeStvSoqi_JoBOiv-1" vertex="1">
          <mxGeometry x="80" y="380" width="120" height="60" as="geometry"/>
        </mxCell>
        <mxCell id="MsBXwD07OSuD3CHzRGqF-5" value="Cluster in Openshift" style="text;html=1;strokeColor=none;fillColor=none;align=center;verticalAlign=middle;whiteSpace=wrap;rounded=0;fontStyle=1" parent="zsDxUeStvSoqi_JoBOiv-1" vertex="1">
          <mxGeometry x="185" y="220" width="150" height="20" as="geometry"/>
        </mxCell>
        <mxCell id="op9Pu3PvogD6s1Ek-j2D-0" value="CoreOS&lt;br&gt;(Infra Node)" style="rounded=0;whiteSpace=wrap;html=1;" parent="zsDxUeStvSoqi_JoBOiv-1" vertex="1">
          <mxGeometry x="470" y="380" width="120" height="60" as="geometry"/>
        </mxCell>
        <mxCell id="op9Pu3PvogD6s1Ek-j2D-1" value="- docker register&lt;br&gt;- fdc router" style="rounded=0;whiteSpace=wrap;html=1;strokeColor=#d6b656;fillColor=#fff2cc;align=left;" parent="zsDxUeStvSoqi_JoBOiv-1" vertex="1">
          <mxGeometry x="470" y="440" width="120" height="30" as="geometry"/>
        </mxCell>
      </root>
    </mxGraphModel>
  </diagram>
  <diagram id="WM39bJQmyRXH6Yc4ft_T" name="Openshift overall">
    <mxGraphModel dx="1422" dy="772" grid="0" gridSize="10" guides="1" tooltips="1" connect="1" arrows="1" fold="1" page="1" pageScale="1" pageWidth="2000" pageHeight="2000" math="0" shadow="0">
      <root>
        <mxCell id="PHCLKVnZDVx8kbPOsAu6-0"/>
        <mxCell id="PHCLKVnZDVx8kbPOsAu6-1" parent="PHCLKVnZDVx8kbPOsAu6-0"/>
        <mxCell id="PHCLKVnZDVx8kbPOsAu6-111" value="" style="rounded=0;whiteSpace=wrap;html=1;strokeColor=#000000;fillColor=#ffffff;" parent="PHCLKVnZDVx8kbPOsAu6-1" vertex="1">
          <mxGeometry x="120" y="60" width="1533" height="1050" as="geometry"/>
        </mxCell>
        <mxCell id="PHCLKVnZDVx8kbPOsAu6-104" value="" style="rounded=0;whiteSpace=wrap;html=1;strokeColor=#000000;fillColor=#ffffff;" parent="PHCLKVnZDVx8kbPOsAu6-1" vertex="1">
          <mxGeometry x="178" y="100" width="1418" height="960" as="geometry"/>
        </mxCell>
        <mxCell id="PHCLKVnZDVx8kbPOsAu6-109" value="" style="rounded=0;whiteSpace=wrap;html=1;strokeColor=#000000;fillColor=#ffffff;" parent="PHCLKVnZDVx8kbPOsAu6-1" vertex="1">
          <mxGeometry x="188" y="110" width="1418" height="960" as="geometry"/>
        </mxCell>
        <mxCell id="PHCLKVnZDVx8kbPOsAu6-110" value="" style="rounded=0;whiteSpace=wrap;html=1;strokeColor=#000000;fillColor=#ffffff;" parent="PHCLKVnZDVx8kbPOsAu6-1" vertex="1">
          <mxGeometry x="198" y="120" width="1418" height="960" as="geometry"/>
        </mxCell>
        <mxCell id="PHCLKVnZDVx8kbPOsAu6-57" value="" style="rounded=0;whiteSpace=wrap;html=1;strokeColor=#000099;fillColor=none;" parent="PHCLKVnZDVx8kbPOsAu6-1" vertex="1">
          <mxGeometry x="496" y="160" width="400" height="480" as="geometry"/>
        </mxCell>
        <mxCell id="PHCLKVnZDVx8kbPOsAu6-43" value="" style="rounded=0;whiteSpace=wrap;html=1;" parent="PHCLKVnZDVx8kbPOsAu6-1" vertex="1">
          <mxGeometry x="532" y="205" width="333" height="421" as="geometry"/>
        </mxCell>
        <mxCell id="PHCLKVnZDVx8kbPOsAu6-2" value="" style="rounded=0;whiteSpace=wrap;html=1;" parent="PHCLKVnZDVx8kbPOsAu6-1" vertex="1">
          <mxGeometry x="557" y="260" width="288" height="324" as="geometry"/>
        </mxCell>
        <mxCell id="PHCLKVnZDVx8kbPOsAu6-3" value="Pod" style="text;html=1;strokeColor=none;fillColor=none;align=center;verticalAlign=middle;whiteSpace=wrap;rounded=0;" parent="PHCLKVnZDVx8kbPOsAu6-1" vertex="1">
          <mxGeometry x="557" y="235" width="40" height="20" as="geometry"/>
        </mxCell>
        <mxCell id="PHCLKVnZDVx8kbPOsAu6-4" value="" style="endArrow=none;dashed=1;html=1;exitX=0;exitY=0.25;exitDx=0;exitDy=0;entryX=1;entryY=0.25;entryDx=0;entryDy=0;" parent="PHCLKVnZDVx8kbPOsAu6-1" source="PHCLKVnZDVx8kbPOsAu6-2" target="PHCLKVnZDVx8kbPOsAu6-2" edge="1">
          <mxGeometry width="50" height="50" relative="1" as="geometry">
            <mxPoint x="638" y="393" as="sourcePoint"/>
            <mxPoint x="688" y="343" as="targetPoint"/>
          </mxGeometry>
        </mxCell>
        <mxCell id="PHCLKVnZDVx8kbPOsAu6-6" value="label" style="rounded=0;whiteSpace=wrap;html=1;" parent="PHCLKVnZDVx8kbPOsAu6-1" vertex="1">
          <mxGeometry x="607" y="289" width="78" height="26" as="geometry"/>
        </mxCell>
        <mxCell id="PHCLKVnZDVx8kbPOsAu6-24" value="" style="group" parent="PHCLKVnZDVx8kbPOsAu6-1" vertex="1" connectable="0">
          <mxGeometry x="597" y="281" width="104" height="39" as="geometry"/>
        </mxCell>
        <mxCell id="PHCLKVnZDVx8kbPOsAu6-5" value="label" style="rounded=0;whiteSpace=wrap;html=1;" parent="PHCLKVnZDVx8kbPOsAu6-24" vertex="1">
          <mxGeometry y="13" width="78" height="26" as="geometry"/>
        </mxCell>
        <mxCell id="PHCLKVnZDVx8kbPOsAu6-25" value="" style="group" parent="PHCLKVnZDVx8kbPOsAu6-1" vertex="1" connectable="0">
          <mxGeometry x="607" y="364" width="120" height="138" as="geometry"/>
        </mxCell>
        <mxCell id="PHCLKVnZDVx8kbPOsAu6-14" value="" style="group" parent="PHCLKVnZDVx8kbPOsAu6-25" vertex="1" connectable="0">
          <mxGeometry width="120" height="138" as="geometry"/>
        </mxCell>
        <mxCell id="PHCLKVnZDVx8kbPOsAu6-8" value="" style="rounded=0;whiteSpace=wrap;html=1;" parent="PHCLKVnZDVx8kbPOsAu6-14" vertex="1">
          <mxGeometry width="120" height="138" as="geometry"/>
        </mxCell>
        <mxCell id="PHCLKVnZDVx8kbPOsAu6-9" value="" style="endArrow=none;dashed=1;html=1;exitX=0;exitY=0.25;exitDx=0;exitDy=0;entryX=1;entryY=0.25;entryDx=0;entryDy=0;" parent="PHCLKVnZDVx8kbPOsAu6-14" source="PHCLKVnZDVx8kbPOsAu6-8" target="PHCLKVnZDVx8kbPOsAu6-8" edge="1">
          <mxGeometry width="50" height="50" relative="1" as="geometry">
            <mxPoint x="28" y="91" as="sourcePoint"/>
            <mxPoint x="78" y="41" as="targetPoint"/>
          </mxGeometry>
        </mxCell>
        <mxCell id="PHCLKVnZDVx8kbPOsAu6-10" value="Image" style="rounded=0;whiteSpace=wrap;html=1;" parent="PHCLKVnZDVx8kbPOsAu6-14" vertex="1">
          <mxGeometry x="9" y="70" width="78" height="31" as="geometry"/>
        </mxCell>
        <mxCell id="PHCLKVnZDVx8kbPOsAu6-11" value="Image" style="rounded=0;whiteSpace=wrap;html=1;" parent="PHCLKVnZDVx8kbPOsAu6-14" vertex="1">
          <mxGeometry x="16" y="62" width="78" height="31" as="geometry"/>
        </mxCell>
        <mxCell id="PHCLKVnZDVx8kbPOsAu6-12" value="Image" style="rounded=0;whiteSpace=wrap;html=1;" parent="PHCLKVnZDVx8kbPOsAu6-14" vertex="1">
          <mxGeometry x="21" y="53.5" width="78" height="31" as="geometry"/>
        </mxCell>
        <mxCell id="PHCLKVnZDVx8kbPOsAu6-13" value="Container" style="text;html=1;strokeColor=none;fillColor=none;align=center;verticalAlign=middle;whiteSpace=wrap;rounded=0;" parent="PHCLKVnZDVx8kbPOsAu6-14" vertex="1">
          <mxGeometry x="9" y="5" width="40" height="20" as="geometry"/>
        </mxCell>
        <mxCell id="PHCLKVnZDVx8kbPOsAu6-44" value="Replication Controller" style="text;html=1;strokeColor=none;fillColor=none;align=center;verticalAlign=middle;whiteSpace=wrap;rounded=0;fontStyle=1" parent="PHCLKVnZDVx8kbPOsAu6-1" vertex="1">
          <mxGeometry x="513" y="185" width="163" height="20" as="geometry"/>
        </mxCell>
        <mxCell id="PHCLKVnZDVx8kbPOsAu6-28" value="" style="rounded=0;whiteSpace=wrap;html=1;" parent="PHCLKVnZDVx8kbPOsAu6-1" vertex="1">
          <mxGeometry x="616" y="379" width="120" height="138" as="geometry"/>
        </mxCell>
        <mxCell id="PHCLKVnZDVx8kbPOsAu6-29" value="" style="endArrow=none;dashed=1;html=1;exitX=0;exitY=0.25;exitDx=0;exitDy=0;entryX=1;entryY=0.25;entryDx=0;entryDy=0;" parent="PHCLKVnZDVx8kbPOsAu6-1" source="PHCLKVnZDVx8kbPOsAu6-28" target="PHCLKVnZDVx8kbPOsAu6-28" edge="1">
          <mxGeometry width="50" height="50" relative="1" as="geometry">
            <mxPoint x="644" y="470" as="sourcePoint"/>
            <mxPoint x="694" y="420" as="targetPoint"/>
          </mxGeometry>
        </mxCell>
        <mxCell id="PHCLKVnZDVx8kbPOsAu6-30" value="Image" style="rounded=0;whiteSpace=wrap;html=1;" parent="PHCLKVnZDVx8kbPOsAu6-1" vertex="1">
          <mxGeometry x="625" y="449" width="78" height="31" as="geometry"/>
        </mxCell>
        <mxCell id="PHCLKVnZDVx8kbPOsAu6-31" value="Image" style="rounded=0;whiteSpace=wrap;html=1;" parent="PHCLKVnZDVx8kbPOsAu6-1" vertex="1">
          <mxGeometry x="632" y="441" width="78" height="31" as="geometry"/>
        </mxCell>
        <mxCell id="PHCLKVnZDVx8kbPOsAu6-32" value="Image" style="rounded=0;whiteSpace=wrap;html=1;" parent="PHCLKVnZDVx8kbPOsAu6-1" vertex="1">
          <mxGeometry x="637" y="432.5" width="78" height="31" as="geometry"/>
        </mxCell>
        <mxCell id="PHCLKVnZDVx8kbPOsAu6-33" value="Container" style="text;html=1;strokeColor=none;fillColor=none;align=center;verticalAlign=middle;whiteSpace=wrap;rounded=0;" parent="PHCLKVnZDVx8kbPOsAu6-1" vertex="1">
          <mxGeometry x="625" y="384" width="40" height="20" as="geometry"/>
        </mxCell>
        <mxCell id="PHCLKVnZDVx8kbPOsAu6-36" value="" style="group" parent="PHCLKVnZDVx8kbPOsAu6-1" vertex="1" connectable="0">
          <mxGeometry x="630.5" y="403" width="120" height="144" as="geometry"/>
        </mxCell>
        <mxCell id="PHCLKVnZDVx8kbPOsAu6-37" value="" style="rounded=0;whiteSpace=wrap;html=1;" parent="PHCLKVnZDVx8kbPOsAu6-36" vertex="1">
          <mxGeometry width="120" height="144" as="geometry"/>
        </mxCell>
        <mxCell id="PHCLKVnZDVx8kbPOsAu6-38" value="" style="endArrow=none;dashed=1;html=1;exitX=0;exitY=0.25;exitDx=0;exitDy=0;entryX=1;entryY=0.25;entryDx=0;entryDy=0;" parent="PHCLKVnZDVx8kbPOsAu6-36" source="PHCLKVnZDVx8kbPOsAu6-37" target="PHCLKVnZDVx8kbPOsAu6-37" edge="1">
          <mxGeometry width="50" height="50" relative="1" as="geometry">
            <mxPoint x="28" y="91" as="sourcePoint"/>
            <mxPoint x="78" y="41" as="targetPoint"/>
          </mxGeometry>
        </mxCell>
        <mxCell id="PHCLKVnZDVx8kbPOsAu6-39" value="Image" style="rounded=0;whiteSpace=wrap;html=1;" parent="PHCLKVnZDVx8kbPOsAu6-36" vertex="1">
          <mxGeometry x="12" y="53.5" width="78" height="31" as="geometry"/>
        </mxCell>
        <mxCell id="PHCLKVnZDVx8kbPOsAu6-42" value="Container" style="text;html=1;strokeColor=none;fillColor=none;align=center;verticalAlign=middle;whiteSpace=wrap;rounded=0;" parent="PHCLKVnZDVx8kbPOsAu6-36" vertex="1">
          <mxGeometry x="9" y="5" width="40" height="20" as="geometry"/>
        </mxCell>
        <mxCell id="PHCLKVnZDVx8kbPOsAu6-95" value="volumemout" style="rounded=0;whiteSpace=wrap;html=1;strokeColor=#000000;fillColor=#ffffff;" parent="PHCLKVnZDVx8kbPOsAu6-36" vertex="1">
          <mxGeometry x="9" y="105" width="81" height="33" as="geometry"/>
        </mxCell>
        <mxCell id="PHCLKVnZDVx8kbPOsAu6-45" value="" style="rounded=0;whiteSpace=wrap;html=1;" parent="PHCLKVnZDVx8kbPOsAu6-1" vertex="1">
          <mxGeometry x="965" y="245" width="158" height="60" as="geometry"/>
        </mxCell>
        <mxCell id="PHCLKVnZDVx8kbPOsAu6-47" style="edgeStyle=orthogonalEdgeStyle;rounded=0;orthogonalLoop=1;jettySize=auto;html=1;strokeColor=#FF0000;" parent="PHCLKVnZDVx8kbPOsAu6-1" source="PHCLKVnZDVx8kbPOsAu6-46" target="PHCLKVnZDVx8kbPOsAu6-5" edge="1">
          <mxGeometry relative="1" as="geometry"/>
        </mxCell>
        <mxCell id="PHCLKVnZDVx8kbPOsAu6-46" value="Selector" style="rounded=0;whiteSpace=wrap;html=1;" parent="PHCLKVnZDVx8kbPOsAu6-1" vertex="1">
          <mxGeometry x="984" y="256.5" width="120" height="37" as="geometry"/>
        </mxCell>
        <mxCell id="PHCLKVnZDVx8kbPOsAu6-48" value="Service (svc) (*)" style="text;html=1;strokeColor=none;fillColor=none;align=center;verticalAlign=middle;whiteSpace=wrap;rounded=0;fontStyle=1" parent="PHCLKVnZDVx8kbPOsAu6-1" vertex="1">
          <mxGeometry x="965" y="220" width="101" height="20" as="geometry"/>
        </mxCell>
        <mxCell id="PHCLKVnZDVx8kbPOsAu6-49" value="service is here to solve the issue of one ip to dynamically up and down pods" style="text;html=1;strokeColor=#d6b656;fillColor=#fff2cc;align=center;verticalAlign=middle;whiteSpace=wrap;rounded=0;" parent="PHCLKVnZDVx8kbPOsAu6-1" vertex="1">
          <mxGeometry x="965" y="310" width="185" height="66" as="geometry"/>
        </mxCell>
        <mxCell id="PHCLKVnZDVx8kbPOsAu6-51" style="edgeStyle=orthogonalEdgeStyle;rounded=0;orthogonalLoop=1;jettySize=auto;html=1;entryX=0;entryY=0.75;entryDx=0;entryDy=0;strokeColor=#FF0000;" parent="PHCLKVnZDVx8kbPOsAu6-1" source="PHCLKVnZDVx8kbPOsAu6-50" target="PHCLKVnZDVx8kbPOsAu6-5" edge="1">
          <mxGeometry relative="1" as="geometry">
            <Array as="points">
              <mxPoint x="577" y="314"/>
            </Array>
          </mxGeometry>
        </mxCell>
        <mxCell id="PHCLKVnZDVx8kbPOsAu6-50" value="Selector" style="rounded=0;whiteSpace=wrap;html=1;" parent="PHCLKVnZDVx8kbPOsAu6-1" vertex="1">
          <mxGeometry x="560" y="588" width="89" height="23" as="geometry"/>
        </mxCell>
        <mxCell id="PHCLKVnZDVx8kbPOsAu6-52" value="Openshift use routerobin on pods assignment." style="text;html=1;strokeColor=#d6b656;fillColor=#fff2cc;align=center;verticalAlign=middle;whiteSpace=wrap;rounded=0;" parent="PHCLKVnZDVx8kbPOsAu6-1" vertex="1">
          <mxGeometry x="965" y="380" width="185" height="46" as="geometry"/>
        </mxCell>
        <mxCell id="PHCLKVnZDVx8kbPOsAu6-54" style="edgeStyle=orthogonalEdgeStyle;rounded=0;orthogonalLoop=1;jettySize=auto;html=1;entryX=0.996;entryY=0.387;entryDx=0;entryDy=0;entryPerimeter=0;strokeColor=#000099;" parent="PHCLKVnZDVx8kbPOsAu6-1" source="PHCLKVnZDVx8kbPOsAu6-53" target="PHCLKVnZDVx8kbPOsAu6-45" edge="1">
          <mxGeometry relative="1" as="geometry"/>
        </mxCell>
        <mxCell id="PHCLKVnZDVx8kbPOsAu6-53" value="Route" style="rounded=0;whiteSpace=wrap;html=1;strokeColor=#000099;fillColor=none;" parent="PHCLKVnZDVx8kbPOsAu6-1" vertex="1">
          <mxGeometry x="1266" y="245" width="120" height="60" as="geometry"/>
        </mxCell>
        <mxCell id="PHCLKVnZDVx8kbPOsAu6-56" value="FQDN" style="edgeStyle=orthogonalEdgeStyle;rounded=0;orthogonalLoop=1;jettySize=auto;html=1;entryX=1;entryY=0.25;entryDx=0;entryDy=0;strokeColor=#000099;" parent="PHCLKVnZDVx8kbPOsAu6-1" source="PHCLKVnZDVx8kbPOsAu6-55" target="PHCLKVnZDVx8kbPOsAu6-53" edge="1">
          <mxGeometry relative="1" as="geometry"/>
        </mxCell>
        <mxCell id="PHCLKVnZDVx8kbPOsAu6-55" value="Internet" style="ellipse;shape=cloud;whiteSpace=wrap;html=1;strokeColor=#000000;fillColor=none;" parent="PHCLKVnZDVx8kbPOsAu6-1" vertex="1">
          <mxGeometry x="1658" y="230" width="120" height="80" as="geometry"/>
        </mxCell>
        <mxCell id="PHCLKVnZDVx8kbPOsAu6-58" value="Deployment config (*)" style="text;html=1;strokeColor=none;fillColor=none;align=center;verticalAlign=middle;whiteSpace=wrap;rounded=0;fontStyle=1" parent="PHCLKVnZDVx8kbPOsAu6-1" vertex="1">
          <mxGeometry x="496" y="134" width="141" height="20" as="geometry"/>
        </mxCell>
        <mxCell id="PHCLKVnZDVx8kbPOsAu6-70" style="edgeStyle=orthogonalEdgeStyle;rounded=0;orthogonalLoop=1;jettySize=auto;html=1;entryX=0;entryY=0.112;entryDx=0;entryDy=0;entryPerimeter=0;strokeColor=#000099;" parent="PHCLKVnZDVx8kbPOsAu6-1" source="PHCLKVnZDVx8kbPOsAu6-67" target="PHCLKVnZDVx8kbPOsAu6-57" edge="1">
          <mxGeometry relative="1" as="geometry"/>
        </mxCell>
        <mxCell id="PHCLKVnZDVx8kbPOsAu6-73" value="" style="group" parent="PHCLKVnZDVx8kbPOsAu6-1" vertex="1" connectable="0">
          <mxGeometry x="73.5" y="1153" width="359" height="366" as="geometry"/>
        </mxCell>
        <mxCell id="PHCLKVnZDVx8kbPOsAu6-60" value="S2I&lt;br&gt;(source to image)" style="ellipse;shape=cloud;whiteSpace=wrap;html=1;strokeColor=#000000;fillColor=none;" parent="PHCLKVnZDVx8kbPOsAu6-73" vertex="1">
          <mxGeometry x="126.5" y="194" width="120" height="80" as="geometry"/>
        </mxCell>
        <mxCell id="PHCLKVnZDVx8kbPOsAu6-63" style="edgeStyle=orthogonalEdgeStyle;rounded=0;orthogonalLoop=1;jettySize=auto;html=1;entryX=0.4;entryY=0.1;entryDx=0;entryDy=0;entryPerimeter=0;strokeColor=#000099;" parent="PHCLKVnZDVx8kbPOsAu6-73" source="PHCLKVnZDVx8kbPOsAu6-61" target="PHCLKVnZDVx8kbPOsAu6-60" edge="1">
          <mxGeometry relative="1" as="geometry"/>
        </mxCell>
        <mxCell id="PHCLKVnZDVx8kbPOsAu6-61" value="runtime image" style="rounded=0;whiteSpace=wrap;html=1;strokeColor=#000000;fillColor=none;" parent="PHCLKVnZDVx8kbPOsAu6-73" vertex="1">
          <mxGeometry x="30" y="56.5" width="120" height="60" as="geometry"/>
        </mxCell>
        <mxCell id="PHCLKVnZDVx8kbPOsAu6-64" style="edgeStyle=orthogonalEdgeStyle;rounded=0;orthogonalLoop=1;jettySize=auto;html=1;entryX=0.4;entryY=0.1;entryDx=0;entryDy=0;entryPerimeter=0;strokeColor=#000099;" parent="PHCLKVnZDVx8kbPOsAu6-73" source="PHCLKVnZDVx8kbPOsAu6-62" target="PHCLKVnZDVx8kbPOsAu6-60" edge="1">
          <mxGeometry relative="1" as="geometry"/>
        </mxCell>
        <mxCell id="PHCLKVnZDVx8kbPOsAu6-62" value="src-code" style="rounded=0;whiteSpace=wrap;html=1;strokeColor=#000000;fillColor=none;" parent="PHCLKVnZDVx8kbPOsAu6-73" vertex="1">
          <mxGeometry x="218" y="56.5" width="120" height="60" as="geometry"/>
        </mxCell>
        <mxCell id="PHCLKVnZDVx8kbPOsAu6-65" value="Image" style="rounded=0;whiteSpace=wrap;html=1;strokeColor=#000000;fillColor=none;" parent="PHCLKVnZDVx8kbPOsAu6-73" vertex="1">
          <mxGeometry x="126.5" y="294.5" width="120" height="60" as="geometry"/>
        </mxCell>
        <mxCell id="PHCLKVnZDVx8kbPOsAu6-66" style="edgeStyle=orthogonalEdgeStyle;rounded=0;orthogonalLoop=1;jettySize=auto;html=1;strokeColor=#000099;" parent="PHCLKVnZDVx8kbPOsAu6-73" source="PHCLKVnZDVx8kbPOsAu6-60" target="PHCLKVnZDVx8kbPOsAu6-65" edge="1">
          <mxGeometry relative="1" as="geometry"/>
        </mxCell>
        <mxCell id="PHCLKVnZDVx8kbPOsAu6-71" value="" style="rounded=0;whiteSpace=wrap;html=1;strokeColor=#000000;fillColor=none;" parent="PHCLKVnZDVx8kbPOsAu6-73" vertex="1">
          <mxGeometry y="26" width="359" height="340" as="geometry"/>
        </mxCell>
        <mxCell id="PHCLKVnZDVx8kbPOsAu6-72" value="Source to image flow" style="text;html=1;strokeColor=none;fillColor=none;align=center;verticalAlign=middle;whiteSpace=wrap;rounded=0;fontStyle=1" parent="PHCLKVnZDVx8kbPOsAu6-73" vertex="1">
          <mxGeometry width="128" height="20" as="geometry"/>
        </mxCell>
        <mxCell id="PHCLKVnZDVx8kbPOsAu6-74" value="" style="rounded=0;whiteSpace=wrap;html=1;strokeColor=#000099;fillColor=none;" parent="PHCLKVnZDVx8kbPOsAu6-1" vertex="1">
          <mxGeometry x="1000" y="510" width="273" height="121" as="geometry"/>
        </mxCell>
        <mxCell id="PHCLKVnZDVx8kbPOsAu6-75" value="Image Stream (IS) (*)" style="text;html=1;strokeColor=none;fillColor=none;align=center;verticalAlign=middle;whiteSpace=wrap;rounded=0;fontStyle=1" parent="PHCLKVnZDVx8kbPOsAu6-1" vertex="1">
          <mxGeometry x="992" y="490" width="126" height="20" as="geometry"/>
        </mxCell>
        <mxCell id="PHCLKVnZDVx8kbPOsAu6-76" value="Openshift element" style="rounded=0;whiteSpace=wrap;html=1;strokeColor=#000099;fillColor=none;" parent="PHCLKVnZDVx8kbPOsAu6-1" vertex="1">
          <mxGeometry x="484.5" y="1465" width="173" height="36" as="geometry"/>
        </mxCell>
        <mxCell id="PHCLKVnZDVx8kbPOsAu6-77" value="Kubernetes element" style="rounded=0;whiteSpace=wrap;html=1;strokeColor=#000000;fillColor=none;" parent="PHCLKVnZDVx8kbPOsAu6-1" vertex="1">
          <mxGeometry x="482.5" y="1423.5" width="177" height="34" as="geometry"/>
        </mxCell>
        <mxCell id="PHCLKVnZDVx8kbPOsAu6-78" value="Docker tagging to &quot;latest&quot; is not automic, have to retag latest with latest" style="text;html=1;strokeColor=#d6b656;fillColor=#fff2cc;align=center;verticalAlign=middle;whiteSpace=wrap;rounded=0;" parent="PHCLKVnZDVx8kbPOsAu6-1" vertex="1">
          <mxGeometry x="482.5" y="1365.5" width="185" height="46" as="geometry"/>
        </mxCell>
        <mxCell id="PHCLKVnZDVx8kbPOsAu6-79" value="When image it push to register, the &quot;latest&quot; automatically get alert here." style="text;html=1;strokeColor=#d6b656;fillColor=#fff2cc;align=center;verticalAlign=middle;whiteSpace=wrap;rounded=0;" parent="PHCLKVnZDVx8kbPOsAu6-1" vertex="1">
          <mxGeometry x="999.5" y="640" width="282" height="43" as="geometry"/>
        </mxCell>
        <mxCell id="PHCLKVnZDVx8kbPOsAu6-81" value="ImageStream Tags (isTag)" style="rounded=0;whiteSpace=wrap;html=1;strokeColor=#000000;fillColor=none;" parent="PHCLKVnZDVx8kbPOsAu6-1" vertex="1">
          <mxGeometry x="1025.5" y="549" width="195" height="41" as="geometry"/>
        </mxCell>
        <mxCell id="PHCLKVnZDVx8kbPOsAu6-86" style="edgeStyle=orthogonalEdgeStyle;rounded=0;orthogonalLoop=1;jettySize=auto;html=1;entryX=1;entryY=0.5;entryDx=0;entryDy=0;strokeColor=#FF0000;" parent="PHCLKVnZDVx8kbPOsAu6-1" source="PHCLKVnZDVx8kbPOsAu6-84" target="PHCLKVnZDVx8kbPOsAu6-39" edge="1">
          <mxGeometry relative="1" as="geometry"/>
        </mxCell>
        <mxCell id="PHCLKVnZDVx8kbPOsAu6-84" value="ImageStream Tags (isTag)" style="rounded=0;whiteSpace=wrap;html=1;strokeColor=#000000;fillColor=#ffffff;" parent="PHCLKVnZDVx8kbPOsAu6-1" vertex="1">
          <mxGeometry x="1035.5" y="559" width="195" height="41" as="geometry"/>
        </mxCell>
        <mxCell id="PHCLKVnZDVx8kbPOsAu6-85" value="ImageStream Tags (isTag)" style="rounded=0;whiteSpace=wrap;html=1;strokeColor=#000000;fillColor=#ffffff;" parent="PHCLKVnZDVx8kbPOsAu6-1" vertex="1">
          <mxGeometry x="1054" y="570" width="194" height="41" as="geometry"/>
        </mxCell>
        <mxCell id="PHCLKVnZDVx8kbPOsAu6-87" value="Reference to image" style="text;html=1;strokeColor=#d6b656;fillColor=#fff2cc;align=center;verticalAlign=middle;whiteSpace=wrap;rounded=0;" parent="PHCLKVnZDVx8kbPOsAu6-1" vertex="1">
          <mxGeometry x="1118" y="489" width="147" height="21" as="geometry"/>
        </mxCell>
        <mxCell id="PHCLKVnZDVx8kbPOsAu6-88" value="Deployment config will be noticed when new image is pushed (based on strategy like rolling update)" style="text;html=1;strokeColor=#d6b656;fillColor=#fff2cc;align=center;verticalAlign=middle;whiteSpace=wrap;rounded=0;" parent="PHCLKVnZDVx8kbPOsAu6-1" vertex="1">
          <mxGeometry x="1000" y="691" width="282" height="43" as="geometry"/>
        </mxCell>
        <mxCell id="PHCLKVnZDVx8kbPOsAu6-91" style="edgeStyle=orthogonalEdgeStyle;rounded=0;orthogonalLoop=1;jettySize=auto;html=1;strokeColor=#FF0000;" parent="PHCLKVnZDVx8kbPOsAu6-1" source="PHCLKVnZDVx8kbPOsAu6-89" target="PHCLKVnZDVx8kbPOsAu6-90" edge="1">
          <mxGeometry relative="1" as="geometry"/>
        </mxCell>
        <mxCell id="PHCLKVnZDVx8kbPOsAu6-89" value="Persistant volume (pv)" style="rounded=0;whiteSpace=wrap;html=1;strokeColor=#000000;fillColor=#ffffff;" parent="PHCLKVnZDVx8kbPOsAu6-1" vertex="1">
          <mxGeometry x="1191.5" y="764.5" width="120" height="60" as="geometry"/>
        </mxCell>
        <mxCell id="PHCLKVnZDVx8kbPOsAu6-90" value="" style="shape=cylinder;whiteSpace=wrap;html=1;boundedLbl=1;backgroundOutline=1;strokeColor=#000000;fillColor=#ffffff;" parent="PHCLKVnZDVx8kbPOsAu6-1" vertex="1">
          <mxGeometry x="1688" y="744.5" width="60" height="80" as="geometry"/>
        </mxCell>
        <mxCell id="PHCLKVnZDVx8kbPOsAu6-93" style="rounded=0;orthogonalLoop=1;jettySize=auto;html=1;strokeColor=#FF0000;" parent="PHCLKVnZDVx8kbPOsAu6-1" source="PHCLKVnZDVx8kbPOsAu6-92" target="PHCLKVnZDVx8kbPOsAu6-89" edge="1">
          <mxGeometry relative="1" as="geometry"/>
        </mxCell>
        <mxCell id="PHCLKVnZDVx8kbPOsAu6-92" value="Persistant volume claim (pvc)" style="rounded=0;whiteSpace=wrap;html=1;strokeColor=#000000;fillColor=#ffffff;" parent="PHCLKVnZDVx8kbPOsAu6-1" vertex="1">
          <mxGeometry x="994" y="764.5" width="120" height="60" as="geometry"/>
        </mxCell>
        <mxCell id="PHCLKVnZDVx8kbPOsAu6-94" value="Volume" style="rounded=0;whiteSpace=wrap;html=1;strokeColor=#000000;fillColor=#ffffff;" parent="PHCLKVnZDVx8kbPOsAu6-1" vertex="1">
          <mxGeometry x="578.5" y="549" width="120" height="28" as="geometry"/>
        </mxCell>
        <mxCell id="PHCLKVnZDVx8kbPOsAu6-96" style="edgeStyle=none;rounded=0;orthogonalLoop=1;jettySize=auto;html=1;strokeColor=#FF0000;exitX=1;exitY=0.5;exitDx=0;exitDy=0;entryX=1;entryY=0.5;entryDx=0;entryDy=0;" parent="PHCLKVnZDVx8kbPOsAu6-1" source="PHCLKVnZDVx8kbPOsAu6-95" target="PHCLKVnZDVx8kbPOsAu6-94" edge="1">
          <mxGeometry relative="1" as="geometry">
            <Array as="points">
              <mxPoint x="748" y="525"/>
              <mxPoint x="748" y="563"/>
            </Array>
          </mxGeometry>
        </mxCell>
        <mxCell id="PHCLKVnZDVx8kbPOsAu6-97" value="" style="endArrow=classic;html=1;strokeColor=#FF0000;entryX=0;entryY=0.5;entryDx=0;entryDy=0;" parent="PHCLKVnZDVx8kbPOsAu6-1" source="PHCLKVnZDVx8kbPOsAu6-94" target="PHCLKVnZDVx8kbPOsAu6-92" edge="1">
          <mxGeometry width="50" height="50" relative="1" as="geometry">
            <mxPoint x="719" y="789" as="sourcePoint"/>
            <mxPoint x="769" y="739" as="targetPoint"/>
            <Array as="points">
              <mxPoint x="647" y="787"/>
            </Array>
          </mxGeometry>
        </mxCell>
        <mxCell id="PHCLKVnZDVx8kbPOsAu6-98" value="Secret" style="rounded=0;whiteSpace=wrap;html=1;strokeColor=#000000;fillColor=#ffffff;" parent="PHCLKVnZDVx8kbPOsAu6-1" vertex="1">
          <mxGeometry x="997.5" y="842" width="120" height="35" as="geometry"/>
        </mxCell>
        <mxCell id="PHCLKVnZDVx8kbPOsAu6-99" value="Config Map" style="rounded=0;whiteSpace=wrap;html=1;strokeColor=#000000;fillColor=#ffffff;" parent="PHCLKVnZDVx8kbPOsAu6-1" vertex="1">
          <mxGeometry x="999.5" y="894.5" width="120" height="35" as="geometry"/>
        </mxCell>
        <mxCell id="PHCLKVnZDVx8kbPOsAu6-101" value="" style="group" parent="PHCLKVnZDVx8kbPOsAu6-1" vertex="1" connectable="0">
          <mxGeometry x="178" y="140.5" width="195" height="129" as="geometry"/>
        </mxCell>
        <mxCell id="PHCLKVnZDVx8kbPOsAu6-67" value="" style="rounded=0;whiteSpace=wrap;html=1;strokeColor=#000099;fillColor=none;" parent="PHCLKVnZDVx8kbPOsAu6-101" vertex="1">
          <mxGeometry x="22" y="20" width="173" height="95" as="geometry"/>
        </mxCell>
        <mxCell id="PHCLKVnZDVx8kbPOsAu6-68" value="S2I" style="rounded=0;whiteSpace=wrap;html=1;strokeColor=#000099;fillColor=none;" parent="PHCLKVnZDVx8kbPOsAu6-101" vertex="1">
          <mxGeometry x="46.5" y="40" width="120" height="60" as="geometry"/>
        </mxCell>
        <mxCell id="PHCLKVnZDVx8kbPOsAu6-69" value="Build Config (*)" style="text;html=1;strokeColor=none;fillColor=none;align=center;verticalAlign=middle;whiteSpace=wrap;rounded=0;fontStyle=1" parent="PHCLKVnZDVx8kbPOsAu6-101" vertex="1">
          <mxGeometry width="124" height="20" as="geometry"/>
        </mxCell>
        <mxCell id="PHCLKVnZDVx8kbPOsAu6-105" value="Template" style="text;html=1;strokeColor=none;fillColor=none;align=center;verticalAlign=middle;whiteSpace=wrap;rounded=0;" parent="PHCLKVnZDVx8kbPOsAu6-1" vertex="1">
          <mxGeometry x="180" y="65" width="118" height="35" as="geometry"/>
        </mxCell>
        <mxCell id="PHCLKVnZDVx8kbPOsAu6-106" style="edgeStyle=none;rounded=0;orthogonalLoop=1;jettySize=auto;html=1;exitX=0.5;exitY=0;exitDx=0;exitDy=0;strokeColor=#FF0000;" parent="PHCLKVnZDVx8kbPOsAu6-1" source="PHCLKVnZDVx8kbPOsAu6-105" target="PHCLKVnZDVx8kbPOsAu6-105" edge="1">
          <mxGeometry relative="1" as="geometry"/>
        </mxCell>
        <mxCell id="PHCLKVnZDVx8kbPOsAu6-112" value="Project" style="text;html=1;strokeColor=none;fillColor=none;align=center;verticalAlign=middle;whiteSpace=wrap;rounded=0;" parent="PHCLKVnZDVx8kbPOsAu6-1" vertex="1">
          <mxGeometry x="124" y="20" width="40" height="20" as="geometry"/>
        </mxCell>
        <mxCell id="PHCLKVnZDVx8kbPOsAu6-113" value="Route (*)" style="text;html=1;strokeColor=none;fillColor=none;align=center;verticalAlign=middle;whiteSpace=wrap;rounded=0;" parent="PHCLKVnZDVx8kbPOsAu6-1" vertex="1">
          <mxGeometry x="1266" y="221" width="91" height="20" as="geometry"/>
        </mxCell>
        <mxCell id="PHCLKVnZDVx8kbPOsAu6-114" value="(*)" style="text;html=1;strokeColor=none;fillColor=none;align=center;verticalAlign=middle;whiteSpace=wrap;rounded=0;" parent="PHCLKVnZDVx8kbPOsAu6-1" vertex="1">
          <mxGeometry x="996" y="744" width="40" height="20" as="geometry"/>
        </mxCell>
        <mxCell id="PHCLKVnZDVx8kbPOsAu6-115" value="(*)" style="text;html=1;strokeColor=none;fillColor=none;align=center;verticalAlign=middle;whiteSpace=wrap;rounded=0;" parent="PHCLKVnZDVx8kbPOsAu6-1" vertex="1">
          <mxGeometry x="1180.5" y="742" width="40" height="20" as="geometry"/>
        </mxCell>
      </root>
    </mxGraphModel>
  </diagram>
  <diagram id="69l0hyVanvkAJrQCxWmS" name="create openshift">
    <mxGraphModel dx="1422" dy="772" grid="1" gridSize="10" guides="1" tooltips="1" connect="1" arrows="1" fold="1" page="1" pageScale="1" pageWidth="2000" pageHeight="2000" math="0" shadow="0">
      <root>
        <mxCell id="v4XD0S7K4HWyAzlc1ZlA-0"/>
        <mxCell id="v4XD0S7K4HWyAzlc1ZlA-1" parent="v4XD0S7K4HWyAzlc1ZlA-0"/>
        <mxCell id="v4XD0S7K4HWyAzlc1ZlA-4" value="" style="edgeStyle=none;rounded=0;orthogonalLoop=1;jettySize=auto;html=1;strokeColor=#FF0000;" parent="v4XD0S7K4HWyAzlc1ZlA-1" source="v4XD0S7K4HWyAzlc1ZlA-2" target="v4XD0S7K4HWyAzlc1ZlA-3" edge="1">
          <mxGeometry relative="1" as="geometry"/>
        </mxCell>
        <mxCell id="v4XD0S7K4HWyAzlc1ZlA-10" value="deploy pod&lt;br&gt;&amp;lt;app&amp;gt;-&amp;lt;deploy#&amp;gt;-&amp;lt;uuid&amp;gt;" style="edgeStyle=none;rounded=0;orthogonalLoop=1;jettySize=auto;html=1;entryX=0.575;entryY=1.033;entryDx=0;entryDy=0;entryPerimeter=0;strokeColor=#FF0000;" parent="v4XD0S7K4HWyAzlc1ZlA-1" source="v4XD0S7K4HWyAzlc1ZlA-2" target="v4XD0S7K4HWyAzlc1ZlA-5" edge="1">
          <mxGeometry relative="1" as="geometry">
            <Array as="points">
              <mxPoint x="147" y="450"/>
              <mxPoint x="559" y="450"/>
            </Array>
          </mxGeometry>
        </mxCell>
        <mxCell id="v4XD0S7K4HWyAzlc1ZlA-2" value="DeploymentConfig&lt;br&gt;(DC)" style="rounded=0;whiteSpace=wrap;html=1;strokeColor=#000000;fillColor=#ffffff;" parent="v4XD0S7K4HWyAzlc1ZlA-1" vertex="1">
          <mxGeometry x="90" y="310" width="120" height="60" as="geometry"/>
        </mxCell>
        <mxCell id="v4XD0S7K4HWyAzlc1ZlA-6" value="" style="edgeStyle=none;rounded=0;orthogonalLoop=1;jettySize=auto;html=1;strokeColor=#FF0000;" parent="v4XD0S7K4HWyAzlc1ZlA-1" source="v4XD0S7K4HWyAzlc1ZlA-3" target="v4XD0S7K4HWyAzlc1ZlA-5" edge="1">
          <mxGeometry relative="1" as="geometry"/>
        </mxCell>
        <mxCell id="v4XD0S7K4HWyAzlc1ZlA-3" value="ReplicationConfig&lt;br&gt;RC" style="rounded=0;whiteSpace=wrap;html=1;strokeColor=#000000;fillColor=#ffffff;" parent="v4XD0S7K4HWyAzlc1ZlA-1" vertex="1">
          <mxGeometry x="290" y="310" width="120" height="60" as="geometry"/>
        </mxCell>
        <mxCell id="v4XD0S7K4HWyAzlc1ZlA-5" value="POD" style="rounded=0;whiteSpace=wrap;html=1;strokeColor=#000000;fillColor=#ffffff;" parent="v4XD0S7K4HWyAzlc1ZlA-1" vertex="1">
          <mxGeometry x="490" y="310" width="120" height="60" as="geometry"/>
        </mxCell>
        <mxCell id="v4XD0S7K4HWyAzlc1ZlA-11" value="oc create -f &amp;lt;FILE&amp;gt;.yml" style="text;html=1;strokeColor=none;fillColor=none;align=center;verticalAlign=middle;whiteSpace=wrap;rounded=0;fontStyle=1" parent="v4XD0S7K4HWyAzlc1ZlA-1" vertex="1">
          <mxGeometry x="90" y="280" width="150" height="20" as="geometry"/>
        </mxCell>
        <mxCell id="v4XD0S7K4HWyAzlc1ZlA-12" value="Resource Type:&lt;br&gt;-dc&lt;br&gt;-rc&lt;br&gt;-pod&lt;br&gt;-svc&lt;br&gt;-route&lt;br&gt;-is&lt;br&gt;-pvc&lt;br&gt;pv&lt;br&gt;-bc&lt;br&gt;-secret&lt;br&gt;" style="text;html=1;strokeColor=#d6b656;fillColor=#fff2cc;align=left;verticalAlign=middle;whiteSpace=wrap;rounded=0;" parent="v4XD0S7K4HWyAzlc1ZlA-1" vertex="1">
          <mxGeometry x="95" y="100" width="110" height="170" as="geometry"/>
        </mxCell>
        <mxCell id="v4XD0S7K4HWyAzlc1ZlA-13" value="oc new-app --docker-image = &amp;lt;registry url&amp;gt;[:&amp;lt;port&amp;gt;]/group/image[:tag]" style="text;html=1;strokeColor=none;fillColor=none;align=center;verticalAlign=middle;whiteSpace=wrap;rounded=0;fontStyle=1" parent="v4XD0S7K4HWyAzlc1ZlA-1" vertex="1">
          <mxGeometry x="165" y="620" width="445" height="20" as="geometry"/>
        </mxCell>
        <mxCell id="v4XD0S7K4HWyAzlc1ZlA-14" value="" style="edgeStyle=none;rounded=0;orthogonalLoop=1;jettySize=auto;html=1;strokeColor=#FF0000;" parent="v4XD0S7K4HWyAzlc1ZlA-1" source="v4XD0S7K4HWyAzlc1ZlA-16" target="v4XD0S7K4HWyAzlc1ZlA-18" edge="1">
          <mxGeometry relative="1" as="geometry"/>
        </mxCell>
        <mxCell id="v4XD0S7K4HWyAzlc1ZlA-15" value="deploy pod&lt;br&gt;&amp;lt;app&amp;gt;-&amp;lt;deploy#&amp;gt;-&amp;lt;uuid&amp;gt;" style="edgeStyle=none;rounded=0;orthogonalLoop=1;jettySize=auto;html=1;entryX=0.575;entryY=1.033;entryDx=0;entryDy=0;entryPerimeter=0;strokeColor=#FF0000;" parent="v4XD0S7K4HWyAzlc1ZlA-1" source="v4XD0S7K4HWyAzlc1ZlA-16" target="v4XD0S7K4HWyAzlc1ZlA-19" edge="1">
          <mxGeometry relative="1" as="geometry">
            <Array as="points">
              <mxPoint x="242" y="800"/>
              <mxPoint x="654" y="800"/>
            </Array>
          </mxGeometry>
        </mxCell>
        <mxCell id="v4XD0S7K4HWyAzlc1ZlA-16" value="DeploymentConfig&lt;br&gt;(DC)" style="rounded=0;whiteSpace=wrap;html=1;strokeColor=#000000;fillColor=#ffffff;" parent="v4XD0S7K4HWyAzlc1ZlA-1" vertex="1">
          <mxGeometry x="185" y="660" width="120" height="60" as="geometry"/>
        </mxCell>
        <mxCell id="v4XD0S7K4HWyAzlc1ZlA-17" value="" style="edgeStyle=none;rounded=0;orthogonalLoop=1;jettySize=auto;html=1;strokeColor=#FF0000;" parent="v4XD0S7K4HWyAzlc1ZlA-1" source="v4XD0S7K4HWyAzlc1ZlA-18" target="v4XD0S7K4HWyAzlc1ZlA-19" edge="1">
          <mxGeometry relative="1" as="geometry"/>
        </mxCell>
        <mxCell id="v4XD0S7K4HWyAzlc1ZlA-18" value="ReplicationConfig&lt;br&gt;RC" style="rounded=0;whiteSpace=wrap;html=1;strokeColor=#000000;fillColor=#ffffff;" parent="v4XD0S7K4HWyAzlc1ZlA-1" vertex="1">
          <mxGeometry x="385" y="660" width="120" height="60" as="geometry"/>
        </mxCell>
        <mxCell id="v4XD0S7K4HWyAzlc1ZlA-19" value="POD" style="rounded=0;whiteSpace=wrap;html=1;strokeColor=#000000;fillColor=#ffffff;" parent="v4XD0S7K4HWyAzlc1ZlA-1" vertex="1">
          <mxGeometry x="585" y="660" width="120" height="60" as="geometry"/>
        </mxCell>
        <mxCell id="v4XD0S7K4HWyAzlc1ZlA-26" style="edgeStyle=none;rounded=0;orthogonalLoop=1;jettySize=auto;html=1;strokeColor=#FF0000;shape=link;" parent="v4XD0S7K4HWyAzlc1ZlA-1" source="v4XD0S7K4HWyAzlc1ZlA-20" edge="1">
          <mxGeometry relative="1" as="geometry">
            <mxPoint x="90" y="850" as="targetPoint"/>
          </mxGeometry>
        </mxCell>
        <mxCell id="v4XD0S7K4HWyAzlc1ZlA-20" value="SVC" style="rounded=0;whiteSpace=wrap;html=1;strokeColor=#000000;fillColor=#ffffff;" parent="v4XD0S7K4HWyAzlc1ZlA-1" vertex="1">
          <mxGeometry x="190" y="820" width="120" height="60" as="geometry"/>
        </mxCell>
        <mxCell id="v4XD0S7K4HWyAzlc1ZlA-25" style="edgeStyle=none;rounded=0;orthogonalLoop=1;jettySize=auto;html=1;entryX=0;entryY=0.5;entryDx=0;entryDy=0;strokeColor=#FF0000;shape=link;" parent="v4XD0S7K4HWyAzlc1ZlA-1" source="v4XD0S7K4HWyAzlc1ZlA-21" target="v4XD0S7K4HWyAzlc1ZlA-16" edge="1">
          <mxGeometry relative="1" as="geometry">
            <Array as="points">
              <mxPoint x="90" y="944"/>
              <mxPoint x="90" y="690"/>
            </Array>
          </mxGeometry>
        </mxCell>
        <mxCell id="v4XD0S7K4HWyAzlc1ZlA-21" value="IS" style="rounded=0;whiteSpace=wrap;html=1;strokeColor=#000000;fillColor=#ffffff;" parent="v4XD0S7K4HWyAzlc1ZlA-1" vertex="1">
          <mxGeometry x="190" y="910" width="120" height="60" as="geometry"/>
        </mxCell>
        <mxCell id="v4XD0S7K4HWyAzlc1ZlA-23" value="If in the docker file, you have EXPOSE &amp;lt;PORT&amp;gt; then only SVC will be created" style="rounded=0;whiteSpace=wrap;html=1;strokeColor=#d6b656;fillColor=#fff2cc;" parent="v4XD0S7K4HWyAzlc1ZlA-1" vertex="1">
          <mxGeometry x="310" y="830" width="242" height="40" as="geometry"/>
        </mxCell>
        <mxCell id="v4XD0S7K4HWyAzlc1ZlA-27" value="oc new-app" style="text;html=1;strokeColor=none;fillColor=none;align=center;verticalAlign=middle;whiteSpace=wrap;rounded=0;fontStyle=1" parent="v4XD0S7K4HWyAzlc1ZlA-1" vertex="1">
          <mxGeometry x="10" y="800" width="70" height="20" as="geometry"/>
        </mxCell>
        <mxCell id="v4XD0S7K4HWyAzlc1ZlA-29" style="edgeStyle=none;shape=link;rounded=0;orthogonalLoop=1;jettySize=auto;html=1;strokeColor=#FF0000;" parent="v4XD0S7K4HWyAzlc1ZlA-1" source="v4XD0S7K4HWyAzlc1ZlA-28" edge="1">
          <mxGeometry relative="1" as="geometry">
            <mxPoint x="90" y="950" as="targetPoint"/>
            <Array as="points">
              <mxPoint x="90" y="1030"/>
            </Array>
          </mxGeometry>
        </mxCell>
        <mxCell id="v4XD0S7K4HWyAzlc1ZlA-28" value="BC" style="rounded=0;whiteSpace=wrap;html=1;strokeColor=#9673a6;fillColor=#e1d5e7;" parent="v4XD0S7K4HWyAzlc1ZlA-1" vertex="1">
          <mxGeometry x="190" y="1000" width="120" height="60" as="geometry"/>
        </mxCell>
        <mxCell id="v4XD0S7K4HWyAzlc1ZlA-30" value="oc new-app &amp;lt;src-code&amp;gt;" style="text;html=1;strokeColor=none;fillColor=none;align=center;verticalAlign=middle;whiteSpace=wrap;rounded=0;fontStyle=1" parent="v4XD0S7K4HWyAzlc1ZlA-1" vertex="1">
          <mxGeometry x="310" y="1020" width="155" height="20" as="geometry"/>
        </mxCell>
        <mxCell id="v4XD0S7K4HWyAzlc1ZlA-33" value="" style="edgeStyle=none;rounded=0;orthogonalLoop=1;jettySize=auto;html=1;strokeColor=#FF0000;" parent="v4XD0S7K4HWyAzlc1ZlA-1" source="v4XD0S7K4HWyAzlc1ZlA-31" target="v4XD0S7K4HWyAzlc1ZlA-32" edge="1">
          <mxGeometry relative="1" as="geometry"/>
        </mxCell>
        <mxCell id="v4XD0S7K4HWyAzlc1ZlA-31" value="BC" style="rounded=0;whiteSpace=wrap;html=1;strokeColor=#9673a6;fillColor=#e1d5e7;" parent="v4XD0S7K4HWyAzlc1ZlA-1" vertex="1">
          <mxGeometry x="190" y="1170" width="120" height="60" as="geometry"/>
        </mxCell>
        <mxCell id="v4XD0S7K4HWyAzlc1ZlA-32" value="build&lt;br&gt;&amp;lt;build #&amp;gt;" style="rounded=0;whiteSpace=wrap;html=1;strokeColor=#000000;fillColor=#ffffff;" parent="v4XD0S7K4HWyAzlc1ZlA-1" vertex="1">
          <mxGeometry x="390" y="1170" width="120" height="60" as="geometry"/>
        </mxCell>
        <mxCell id="v4XD0S7K4HWyAzlc1ZlA-36" style="edgeStyle=none;rounded=0;orthogonalLoop=1;jettySize=auto;html=1;entryX=0.5;entryY=1;entryDx=0;entryDy=0;strokeColor=#FF0000;" parent="v4XD0S7K4HWyAzlc1ZlA-1" source="v4XD0S7K4HWyAzlc1ZlA-34" target="v4XD0S7K4HWyAzlc1ZlA-32" edge="1">
          <mxGeometry relative="1" as="geometry">
            <Array as="points">
              <mxPoint x="450" y="1300"/>
            </Array>
          </mxGeometry>
        </mxCell>
        <mxCell id="v4XD0S7K4HWyAzlc1ZlA-34" value="src-code" style="rounded=0;whiteSpace=wrap;html=1;strokeColor=#000000;fillColor=#ffffff;" parent="v4XD0S7K4HWyAzlc1ZlA-1" vertex="1">
          <mxGeometry x="300" y="1270" width="120" height="60" as="geometry"/>
        </mxCell>
        <mxCell id="v4XD0S7K4HWyAzlc1ZlA-38" style="edgeStyle=none;rounded=0;orthogonalLoop=1;jettySize=auto;html=1;entryX=0.5;entryY=1;entryDx=0;entryDy=0;strokeColor=#FF0000;" parent="v4XD0S7K4HWyAzlc1ZlA-1" source="v4XD0S7K4HWyAzlc1ZlA-37" target="v4XD0S7K4HWyAzlc1ZlA-32" edge="1">
          <mxGeometry relative="1" as="geometry">
            <Array as="points">
              <mxPoint x="450" y="1300"/>
            </Array>
          </mxGeometry>
        </mxCell>
        <mxCell id="v4XD0S7K4HWyAzlc1ZlA-37" value="builder image" style="rounded=0;whiteSpace=wrap;html=1;strokeColor=#000000;fillColor=#ffffff;" parent="v4XD0S7K4HWyAzlc1ZlA-1" vertex="1">
          <mxGeometry x="490" y="1270" width="120" height="60" as="geometry"/>
        </mxCell>
        <mxCell id="v4XD0S7K4HWyAzlc1ZlA-39" value="it is from is. Supposed builder image will be&lt;br&gt;download to your image register, and expose&lt;br&gt;to your IS" style="rounded=0;whiteSpace=wrap;html=1;strokeColor=#d6b656;fillColor=#fff2cc;align=center;" parent="v4XD0S7K4HWyAzlc1ZlA-1" vertex="1">
          <mxGeometry x="645" y="1270" width="272" height="60" as="geometry"/>
        </mxCell>
        <mxCell id="v4XD0S7K4HWyAzlc1ZlA-40" value="1. oc create -f &amp;lt;FILE&amp;gt;.yml" style="text;html=1;strokeColor=none;fillColor=none;align=center;verticalAlign=middle;whiteSpace=wrap;rounded=0;fontStyle=1" parent="v4XD0S7K4HWyAzlc1ZlA-1" vertex="1">
          <mxGeometry x="385" y="30" width="150" height="20" as="geometry"/>
        </mxCell>
        <mxCell id="v4XD0S7K4HWyAzlc1ZlA-41" value="2. oc new-app --docker-image = &amp;lt;registry url&amp;gt;[:&amp;lt;port&amp;gt;]/group/image[:tag]" style="text;html=1;strokeColor=none;fillColor=none;align=center;verticalAlign=middle;whiteSpace=wrap;rounded=0;fontStyle=1" parent="v4XD0S7K4HWyAzlc1ZlA-1" vertex="1">
          <mxGeometry x="370" y="50" width="445" height="20" as="geometry"/>
        </mxCell>
        <mxCell id="v4XD0S7K4HWyAzlc1ZlA-42" value="3. oc new-app &amp;lt;src-code&amp;gt;" style="text;html=1;strokeColor=none;fillColor=none;align=center;verticalAlign=middle;whiteSpace=wrap;rounded=0;fontStyle=1" parent="v4XD0S7K4HWyAzlc1ZlA-1" vertex="1">
          <mxGeometry x="385" y="70" width="155" height="20" as="geometry"/>
        </mxCell>
        <mxCell id="v4XD0S7K4HWyAzlc1ZlA-43" value="3.1. oc new-app&amp;lt;builder-img&amp;gt;~&amp;lt;src-code&amp;gt;" style="text;html=1;strokeColor=none;fillColor=none;align=center;verticalAlign=middle;whiteSpace=wrap;rounded=0;fontStyle=1" parent="v4XD0S7K4HWyAzlc1ZlA-1" vertex="1">
          <mxGeometry x="411" y="90" width="260" height="20" as="geometry"/>
        </mxCell>
        <mxCell id="v4XD0S7K4HWyAzlc1ZlA-44" value="3.2. oc new-app -i &amp;lt;builder-img&amp;gt;~&amp;lt;src-code&amp;gt;&amp;nbsp;" style="text;html=1;strokeColor=none;fillColor=none;align=center;verticalAlign=middle;whiteSpace=wrap;rounded=0;fontStyle=1" parent="v4XD0S7K4HWyAzlc1ZlA-1" vertex="1">
          <mxGeometry x="420" y="110" width="260" height="20" as="geometry"/>
        </mxCell>
        <mxCell id="v4XD0S7K4HWyAzlc1ZlA-45" value="must build image from my source, ignore getting from is" style="rounded=0;whiteSpace=wrap;html=1;strokeColor=#d6b656;fillColor=#fff2cc;" parent="v4XD0S7K4HWyAzlc1ZlA-1" vertex="1">
          <mxGeometry x="720" y="77.5" width="308" height="30" as="geometry"/>
        </mxCell>
        <mxCell id="v4XD0S7K4HWyAzlc1ZlA-46" value="must build image from my source with tag otherwise get from is" style="rounded=0;whiteSpace=wrap;html=1;strokeColor=#d6b656;fillColor=#fff2cc;" parent="v4XD0S7K4HWyAzlc1ZlA-1" vertex="1">
          <mxGeometry x="720" y="115" width="350" height="30" as="geometry"/>
        </mxCell>
        <mxCell id="v4XD0S7K4HWyAzlc1ZlA-47" value="Pod" style="text;html=1;strokeColor=none;fillColor=none;align=center;verticalAlign=middle;whiteSpace=wrap;rounded=0;fontStyle=1" parent="v4XD0S7K4HWyAzlc1ZlA-1" vertex="1">
          <mxGeometry x="391" y="1150" width="40" height="20" as="geometry"/>
        </mxCell>
        <mxCell id="jv_p9G46TBzople4ALqg-0" value="3.3. oc new-app -i cx-image:7.0~https:github/cx&amp;nbsp;" style="text;html=1;strokeColor=none;fillColor=none;align=center;verticalAlign=middle;whiteSpace=wrap;rounded=0;fontStyle=1" parent="v4XD0S7K4HWyAzlc1ZlA-1" vertex="1">
          <mxGeometry x="417" y="130" width="288" height="20" as="geometry"/>
        </mxCell>
      </root>
    </mxGraphModel>
  </diagram>
  <diagram id="wMtYUuB4AFNLSIeOEBw5" name="Image build">
    <mxGraphModel dx="1422" dy="772" grid="1" gridSize="10" guides="1" tooltips="1" connect="1" arrows="1" fold="1" page="1" pageScale="1" pageWidth="2000" pageHeight="2000" math="0" shadow="0">
      <root>
        <mxCell id="jMWeecgyXyAHezZYqXxF-0"/>
        <mxCell id="jMWeecgyXyAHezZYqXxF-1" parent="jMWeecgyXyAHezZYqXxF-0"/>
        <mxCell id="jMWeecgyXyAHezZYqXxF-2" value="" style="edgeStyle=orthogonalEdgeStyle;rounded=0;orthogonalLoop=1;jettySize=auto;html=1;" parent="jMWeecgyXyAHezZYqXxF-1" source="jMWeecgyXyAHezZYqXxF-3" target="jMWeecgyXyAHezZYqXxF-4" edge="1">
          <mxGeometry relative="1" as="geometry"/>
        </mxCell>
        <mxCell id="jMWeecgyXyAHezZYqXxF-3" value="ONBUILD xxx" style="rounded=0;whiteSpace=wrap;html=1;" parent="jMWeecgyXyAHezZYqXxF-1" vertex="1">
          <mxGeometry x="430" y="586" width="172" height="60" as="geometry"/>
        </mxCell>
        <mxCell id="jMWeecgyXyAHezZYqXxF-4" value="FROM cxImage:1.0" style="rounded=0;whiteSpace=wrap;html=1;" parent="jMWeecgyXyAHezZYqXxF-1" vertex="1">
          <mxGeometry x="430" y="448" width="135" height="60" as="geometry"/>
        </mxCell>
        <mxCell id="jMWeecgyXyAHezZYqXxF-5" value="DockerImage 1 : cxImage:1.0" style="text;html=1;strokeColor=none;fillColor=none;align=center;verticalAlign=middle;whiteSpace=wrap;rounded=0;fontStyle=1" parent="jMWeecgyXyAHezZYqXxF-1" vertex="1">
          <mxGeometry x="430" y="566" width="171" height="20" as="geometry"/>
        </mxCell>
        <mxCell id="jMWeecgyXyAHezZYqXxF-6" value="run ONBUILD xxx" style="text;html=1;strokeColor=#d6b656;fillColor=#fff2cc;align=center;verticalAlign=middle;whiteSpace=wrap;rounded=0;" parent="jMWeecgyXyAHezZYqXxF-1" vertex="1">
          <mxGeometry x="430" y="430" width="137" height="23" as="geometry"/>
        </mxCell>
      </root>
    </mxGraphModel>
  </diagram>
  <diagram id="aDZyyR3POi-m8lZ52GSR" name="node-pod-registry">
    <mxGraphModel dx="1435" dy="892" grid="1" gridSize="10" guides="1" tooltips="1" connect="1" arrows="1" fold="1" page="1" pageScale="1" pageWidth="2000" pageHeight="2000" math="0" shadow="0">
      <root>
        <mxCell id="SqB3lRSYzQfCvMCHW15_-0"/>
        <mxCell id="SqB3lRSYzQfCvMCHW15_-1" parent="SqB3lRSYzQfCvMCHW15_-0"/>
        <mxCell id="SqB3lRSYzQfCvMCHW15_-5" value="Infra Node" style="swimlane;html=1;startSize=20;horizontal=1;containerType=tree;" vertex="1" parent="SqB3lRSYzQfCvMCHW15_-1">
          <mxGeometry x="70" y="350" width="280" height="240" as="geometry"/>
        </mxCell>
        <mxCell id="SqB3lRSYzQfCvMCHW15_-21" value="" style="edgeStyle=orthogonalEdgeStyle;rounded=0;orthogonalLoop=1;jettySize=auto;html=1;" edge="1" parent="SqB3lRSYzQfCvMCHW15_-5" source="SqB3lRSYzQfCvMCHW15_-18" target="SqB3lRSYzQfCvMCHW15_-23">
          <mxGeometry relative="1" as="geometry"/>
        </mxCell>
        <mxCell id="SqB3lRSYzQfCvMCHW15_-18" value="&lt;div style=&quot;box-sizing: border-box ; width: 100% ; background: #e4e4e4 ; padding: 2px&quot;&gt;&lt;b&gt;Images in registry/ folder&lt;/b&gt;&lt;/div&gt;&lt;table style=&quot;width: 100% ; font-size: 1em&quot; cellpadding=&quot;2&quot; cellspacing=&quot;0&quot;&gt;&lt;tbody&gt;&lt;tr&gt;&lt;td&gt;&lt;b&gt;ImageName&lt;/b&gt;&lt;/td&gt;&lt;td&gt;&lt;b&gt;Tag&lt;/b&gt;&amp;nbsp;&lt;/td&gt;&lt;/tr&gt;&lt;tr&gt;&lt;td&gt;cxImage&lt;/td&gt;&lt;td&gt;v1.0&lt;/td&gt;&lt;/tr&gt;&lt;/tbody&gt;&lt;/table&gt;" style="verticalAlign=top;align=left;overflow=fill;html=1;" vertex="1" parent="SqB3lRSYzQfCvMCHW15_-5">
          <mxGeometry x="20" y="140" width="240" height="70" as="geometry"/>
        </mxCell>
        <mxCell id="SqB3lRSYzQfCvMCHW15_-25" style="edgeStyle=orthogonalEdgeStyle;rounded=0;orthogonalLoop=1;jettySize=auto;html=1;entryX=0.5;entryY=0;entryDx=0;entryDy=0;" edge="1" parent="SqB3lRSYzQfCvMCHW15_-5" source="SqB3lRSYzQfCvMCHW15_-23" target="SqB3lRSYzQfCvMCHW15_-18">
          <mxGeometry relative="1" as="geometry"/>
        </mxCell>
        <mxCell id="SqB3lRSYzQfCvMCHW15_-23" value="&lt;p style=&quot;margin: 0px ; margin-top: 6px ; text-align: center&quot;&gt;&lt;b&gt;Pod&lt;/b&gt;&lt;/p&gt;&lt;hr&gt;&lt;p style=&quot;margin: 0px ; margin-left: 8px&quot;&gt;&lt;span style=&quot;font-family: &amp;#34;arial&amp;#34; ; font-size: 14.6667px ; text-align: center ; white-space: pre-wrap&quot;&gt;openshift-image-registry &lt;/span&gt;&lt;/p&gt;&lt;p style=&quot;margin: 0px ; margin-left: 8px&quot;&gt;&lt;span style=&quot;font-family: &amp;#34;arial&amp;#34; ; font-size: 14.6667px ; text-align: center ; white-space: pre-wrap&quot;&gt;(docker-register)&lt;/span&gt;&lt;br&gt;&lt;/p&gt;" style="align=left;overflow=fill;html=1;" vertex="1" parent="SqB3lRSYzQfCvMCHW15_-5">
          <mxGeometry x="20" y="30" width="240" height="80" as="geometry"/>
        </mxCell>
        <mxCell id="SqB3lRSYzQfCvMCHW15_-24" value="" style="shape=component;jettyWidth=8;jettyHeight=4;" vertex="1" parent="SqB3lRSYzQfCvMCHW15_-23">
          <mxGeometry x="1" width="20" height="20" relative="1" as="geometry">
            <mxPoint x="-24" y="4" as="offset"/>
          </mxGeometry>
        </mxCell>
        <mxCell id="SqB3lRSYzQfCvMCHW15_-29" style="edgeStyle=orthogonalEdgeStyle;rounded=0;orthogonalLoop=1;jettySize=auto;html=1;entryX=0.996;entryY=0.588;entryDx=0;entryDy=0;entryPerimeter=0;" edge="1" parent="SqB3lRSYzQfCvMCHW15_-1" source="hg93qT7s7kdfA4QIr90u-7" target="SqB3lRSYzQfCvMCHW15_-23">
          <mxGeometry relative="1" as="geometry">
            <Array as="points">
              <mxPoint x="390" y="644"/>
              <mxPoint x="390" y="427"/>
            </Array>
          </mxGeometry>
        </mxCell>
        <mxCell id="SqB3lRSYzQfCvMCHW15_-30" value="4. put to registry" style="text;html=1;resizable=0;points=[];align=center;verticalAlign=middle;labelBackgroundColor=#ffffff;" vertex="1" connectable="0" parent="SqB3lRSYzQfCvMCHW15_-29">
          <mxGeometry x="0.1845" y="-4" relative="1" as="geometry">
            <mxPoint as="offset"/>
          </mxGeometry>
        </mxCell>
        <mxCell id="qADbhqiLOKvpajbnPT8r-0" value="Image Stream" style="swimlane;html=1;startSize=20;horizontal=1;containerType=tree;" vertex="1" parent="SqB3lRSYzQfCvMCHW15_-1">
          <mxGeometry x="550" y="145" width="170" height="110" as="geometry"/>
        </mxCell>
        <mxCell id="qADbhqiLOKvpajbnPT8r-5" value="openshift" style="rounded=0;whiteSpace=wrap;html=1;" vertex="1" parent="qADbhqiLOKvpajbnPT8r-0">
          <mxGeometry x="20" y="30" width="120" height="30" as="geometry"/>
        </mxCell>
        <mxCell id="qADbhqiLOKvpajbnPT8r-8" value="cxService" style="rounded=0;whiteSpace=wrap;html=1;" vertex="1" parent="qADbhqiLOKvpajbnPT8r-0">
          <mxGeometry x="20" y="65" width="120" height="30" as="geometry"/>
        </mxCell>
        <mxCell id="qADbhqiLOKvpajbnPT8r-6" style="edgeStyle=orthogonalEdgeStyle;rounded=0;orthogonalLoop=1;jettySize=auto;html=1;entryX=0;entryY=0.5;entryDx=0;entryDy=0;" edge="1" parent="SqB3lRSYzQfCvMCHW15_-1" source="SqB3lRSYzQfCvMCHW15_-23" target="qADbhqiLOKvpajbnPT8r-8">
          <mxGeometry relative="1" as="geometry">
            <Array as="points">
              <mxPoint x="210" y="225"/>
            </Array>
          </mxGeometry>
        </mxCell>
        <mxCell id="qADbhqiLOKvpajbnPT8r-7" value="5. public to cxService IS" style="text;html=1;resizable=0;points=[];align=center;verticalAlign=middle;labelBackgroundColor=#ffffff;" vertex="1" connectable="0" parent="qADbhqiLOKvpajbnPT8r-6">
          <mxGeometry x="0.0979" y="-1" relative="1" as="geometry">
            <mxPoint x="2" y="-6" as="offset"/>
          </mxGeometry>
        </mxCell>
        <mxCell id="hg93qT7s7kdfA4QIr90u-0" style="edgeStyle=orthogonalEdgeStyle;rounded=0;orthogonalLoop=1;jettySize=auto;html=1;entryX=1;entryY=0.5;entryDx=0;entryDy=0;" edge="1" parent="SqB3lRSYzQfCvMCHW15_-1" source="hg93qT7s7kdfA4QIr90u-7" target="qADbhqiLOKvpajbnPT8r-5">
          <mxGeometry relative="1" as="geometry">
            <Array as="points">
              <mxPoint x="790" y="644"/>
              <mxPoint x="790" y="190"/>
            </Array>
          </mxGeometry>
        </mxCell>
        <mxCell id="hg93qT7s7kdfA4QIr90u-1" value="1. lookup builder image ref (redhat-java)" style="text;html=1;resizable=0;points=[];align=center;verticalAlign=middle;labelBackgroundColor=#ffffff;" vertex="1" connectable="0" parent="hg93qT7s7kdfA4QIr90u-0">
          <mxGeometry x="-0.0308" y="-1" relative="1" as="geometry">
            <mxPoint as="offset"/>
          </mxGeometry>
        </mxCell>
        <mxCell id="hg93qT7s7kdfA4QIr90u-2" value="Any registry" style="ellipse;shape=cloud;whiteSpace=wrap;html=1;" vertex="1" parent="SqB3lRSYzQfCvMCHW15_-1">
          <mxGeometry x="910" y="600" width="120" height="80" as="geometry"/>
        </mxCell>
        <mxCell id="hg93qT7s7kdfA4QIr90u-5" value="Builder Node/Worker Node" style="swimlane;html=1;startSize=20;horizontal=1;containerType=tree;" vertex="1" parent="SqB3lRSYzQfCvMCHW15_-1">
          <mxGeometry x="420" y="580" width="330" height="230" as="geometry"/>
        </mxCell>
        <mxCell id="hg93qT7s7kdfA4QIr90u-6" value="3. build image in local registry" style="edgeStyle=orthogonalEdgeStyle;rounded=0;orthogonalLoop=1;jettySize=auto;html=1;" edge="1" parent="hg93qT7s7kdfA4QIr90u-5" source="hg93qT7s7kdfA4QIr90u-7" target="hg93qT7s7kdfA4QIr90u-9">
          <mxGeometry relative="1" as="geometry"/>
        </mxCell>
        <mxCell id="hg93qT7s7kdfA4QIr90u-7" value="&lt;p style=&quot;margin: 0px ; margin-top: 6px ; text-align: center&quot;&gt;&lt;b&gt;Build Pod&lt;/b&gt;&lt;/p&gt;&lt;hr&gt;&lt;p style=&quot;margin: 0px ; margin-left: 8px&quot;&gt;&lt;span&gt;BC : -i redhat-java :&amp;nbsp;&lt;/span&gt;&lt;span&gt;https://github.com/cx-java&amp;nbsp;&lt;/span&gt;&lt;br&gt;&lt;/p&gt;" style="align=left;overflow=fill;html=1;" vertex="1" parent="hg93qT7s7kdfA4QIr90u-5">
          <mxGeometry x="20" y="30" width="280" height="70" as="geometry"/>
        </mxCell>
        <mxCell id="hg93qT7s7kdfA4QIr90u-8" value="" style="shape=component;jettyWidth=8;jettyHeight=4;" vertex="1" parent="hg93qT7s7kdfA4QIr90u-7">
          <mxGeometry x="1" width="20" height="20" relative="1" as="geometry">
            <mxPoint x="-24" y="4" as="offset"/>
          </mxGeometry>
        </mxCell>
        <mxCell id="hg93qT7s7kdfA4QIr90u-9" value="&lt;div style=&quot;box-sizing: border-box ; width: 100% ; background: #e4e4e4 ; padding: 2px&quot;&gt;&lt;b&gt;Images in usr/local/container/ folder&lt;/b&gt;&lt;/div&gt;&lt;table style=&quot;width: 100% ; font-size: 1em&quot; cellpadding=&quot;2&quot; cellspacing=&quot;0&quot;&gt;&lt;tbody&gt;&lt;tr&gt;&lt;td&gt;&lt;b&gt;ImageName&lt;/b&gt;&lt;/td&gt;&lt;td&gt;&lt;b&gt;Tag&lt;/b&gt;&amp;nbsp;&lt;/td&gt;&lt;/tr&gt;&lt;tr&gt;&lt;td&gt;redHat-java&lt;br&gt;&lt;/td&gt;&lt;td&gt;v1.0&lt;br&gt;&lt;/td&gt;&lt;/tr&gt;&lt;/tbody&gt;&lt;/table&gt;" style="verticalAlign=top;align=left;overflow=fill;html=1;" vertex="1" parent="hg93qT7s7kdfA4QIr90u-5">
          <mxGeometry x="20" y="130" width="280" height="70" as="geometry"/>
        </mxCell>
        <mxCell id="hg93qT7s7kdfA4QIr90u-13" style="edgeStyle=orthogonalEdgeStyle;rounded=0;orthogonalLoop=1;jettySize=auto;html=1;" edge="1" parent="SqB3lRSYzQfCvMCHW15_-1" source="hg93qT7s7kdfA4QIr90u-7" target="hg93qT7s7kdfA4QIr90u-2">
          <mxGeometry relative="1" as="geometry"/>
        </mxCell>
        <mxCell id="hg93qT7s7kdfA4QIr90u-30" value="2. get redhat-java" style="text;html=1;resizable=0;points=[];align=center;verticalAlign=middle;labelBackgroundColor=#ffffff;" vertex="1" connectable="0" parent="hg93qT7s7kdfA4QIr90u-13">
          <mxGeometry x="0.2923" relative="1" as="geometry">
            <mxPoint as="offset"/>
          </mxGeometry>
        </mxCell>
        <mxCell id="hg93qT7s7kdfA4QIr90u-28" style="edgeStyle=orthogonalEdgeStyle;rounded=0;orthogonalLoop=1;jettySize=auto;html=1;entryX=0.5;entryY=1;entryDx=0;entryDy=0;" edge="1" parent="SqB3lRSYzQfCvMCHW15_-1" source="hg93qT7s7kdfA4QIr90u-24" target="hg93qT7s7kdfA4QIr90u-5">
          <mxGeometry relative="1" as="geometry"/>
        </mxCell>
        <mxCell id="hg93qT7s7kdfA4QIr90u-29" value="0. create build pod" style="text;html=1;resizable=0;points=[];align=center;verticalAlign=middle;labelBackgroundColor=#ffffff;" vertex="1" connectable="0" parent="hg93qT7s7kdfA4QIr90u-28">
          <mxGeometry x="0.2229" relative="1" as="geometry">
            <mxPoint as="offset"/>
          </mxGeometry>
        </mxCell>
        <mxCell id="hg93qT7s7kdfA4QIr90u-24" value="Worker Node" style="swimlane;html=1;startSize=20;horizontal=1;containerType=tree;fillColor=#fff2cc;strokeColor=#d6b656;" vertex="1" parent="SqB3lRSYzQfCvMCHW15_-1">
          <mxGeometry x="420" y="910" width="330" height="210" as="geometry">
            <mxRectangle x="535" y="910" width="100" height="20" as="alternateBounds"/>
          </mxGeometry>
        </mxCell>
        <mxCell id="hg93qT7s7kdfA4QIr90u-36" value="8. put image in local registry" style="edgeStyle=orthogonalEdgeStyle;rounded=0;orthogonalLoop=1;jettySize=auto;html=1;" edge="1" parent="hg93qT7s7kdfA4QIr90u-24" source="hg93qT7s7kdfA4QIr90u-25" target="hg93qT7s7kdfA4QIr90u-27">
          <mxGeometry relative="1" as="geometry"/>
        </mxCell>
        <mxCell id="hg93qT7s7kdfA4QIr90u-25" value="&lt;p style=&quot;margin: 0px ; margin-top: 6px ; text-align: center&quot;&gt;&lt;b&gt;Pod&lt;/b&gt;&lt;/p&gt;&lt;hr&gt;&lt;p style=&quot;margin: 0px ; margin-left: 8px&quot;&gt;cxService with&lt;/p&gt;&lt;p style=&quot;margin: 0px ; margin-left: 8px&quot;&gt;BC : -i redhat-java :&amp;nbsp;&lt;span&gt;https://github.com/cx-java&amp;nbsp;&lt;/span&gt;&lt;/p&gt;" style="align=left;overflow=fill;html=1;" vertex="1" parent="hg93qT7s7kdfA4QIr90u-24">
          <mxGeometry x="20" y="30" width="280" height="70" as="geometry"/>
        </mxCell>
        <mxCell id="hg93qT7s7kdfA4QIr90u-26" value="" style="shape=component;jettyWidth=8;jettyHeight=4;" vertex="1" parent="hg93qT7s7kdfA4QIr90u-25">
          <mxGeometry x="1" width="20" height="20" relative="1" as="geometry">
            <mxPoint x="-24" y="4" as="offset"/>
          </mxGeometry>
        </mxCell>
        <mxCell id="hg93qT7s7kdfA4QIr90u-27" value="&lt;div style=&quot;box-sizing: border-box ; width: 100% ; background: #e4e4e4 ; padding: 2px&quot;&gt;&lt;b&gt;Images in usr/local/container/ folder&lt;/b&gt;&lt;/div&gt;&lt;table style=&quot;width: 100% ; font-size: 1em&quot; cellpadding=&quot;2&quot; cellspacing=&quot;0&quot;&gt;&lt;tbody&gt;&lt;tr&gt;&lt;td&gt;&lt;b&gt;ImageName&lt;/b&gt;&lt;/td&gt;&lt;td&gt;&lt;b&gt;Tag&lt;/b&gt;&amp;nbsp;&lt;/td&gt;&lt;/tr&gt;&lt;tr&gt;&lt;td&gt;cxImage&lt;/td&gt;&lt;td&gt;v1.0&lt;/td&gt;&lt;/tr&gt;&lt;/tbody&gt;&lt;/table&gt;" style="verticalAlign=top;align=left;overflow=fill;html=1;" vertex="1" parent="hg93qT7s7kdfA4QIr90u-24">
          <mxGeometry x="25" y="130" width="280" height="70" as="geometry"/>
        </mxCell>
        <mxCell id="hg93qT7s7kdfA4QIr90u-31" style="edgeStyle=orthogonalEdgeStyle;rounded=0;orthogonalLoop=1;jettySize=auto;html=1;entryX=1;entryY=0.5;entryDx=0;entryDy=0;" edge="1" parent="SqB3lRSYzQfCvMCHW15_-1" source="hg93qT7s7kdfA4QIr90u-25" target="qADbhqiLOKvpajbnPT8r-8">
          <mxGeometry relative="1" as="geometry">
            <Array as="points">
              <mxPoint x="1060" y="990"/>
              <mxPoint x="1060" y="226"/>
            </Array>
          </mxGeometry>
        </mxCell>
        <mxCell id="hg93qT7s7kdfA4QIr90u-32" value="6. lookup refer to cxImage IS" style="text;html=1;resizable=0;points=[];align=center;verticalAlign=middle;labelBackgroundColor=#ffffff;" vertex="1" connectable="0" parent="hg93qT7s7kdfA4QIr90u-31">
          <mxGeometry x="0.0082" y="-2" relative="1" as="geometry">
            <mxPoint x="8.5" y="-87.5" as="offset"/>
          </mxGeometry>
        </mxCell>
        <mxCell id="hg93qT7s7kdfA4QIr90u-34" style="edgeStyle=orthogonalEdgeStyle;rounded=0;orthogonalLoop=1;jettySize=auto;html=1;entryX=0.55;entryY=0.95;entryDx=0;entryDy=0;entryPerimeter=0;" edge="1" parent="SqB3lRSYzQfCvMCHW15_-1" source="hg93qT7s7kdfA4QIr90u-25" target="hg93qT7s7kdfA4QIr90u-2">
          <mxGeometry relative="1" as="geometry"/>
        </mxCell>
        <mxCell id="hg93qT7s7kdfA4QIr90u-35" value="7. pull image from registry&lt;br&gt;(openshift-image-registry)" style="text;html=1;resizable=0;points=[];align=center;verticalAlign=middle;labelBackgroundColor=#ffffff;" vertex="1" connectable="0" parent="hg93qT7s7kdfA4QIr90u-34">
          <mxGeometry x="0.6183" y="2" relative="1" as="geometry">
            <mxPoint as="offset"/>
          </mxGeometry>
        </mxCell>
      </root>
    </mxGraphModel>
  </diagram>
</mxfile>
